<svg width="107" height="94" viewBox="0 0 107 94" fill="none" xmlns="http://www.w3.org/2000/svg">
<path d="M91.403 24.4686H104.744V38.8451H91.403V66.3167C91.403 75.6666 91.9819 75.6388 93.1398 76.7342C94.2977 77.8295 96.6135 78.3772 100.087 78.3772C101.245 78.5141 102.258 78.3772 103.416 78.2403C104.429 78.2403 105.829 77.4647 106.553 76.7342V91.7954C104.744 92.5684 102.692 93.4384 100.666 93.4384C98.4951 93.5753 96.4688 93.5753 94.4424 93.5753C94.3068 93.5753 92.0151 93.5753 91.0502 93.4384C88.6997 93.1049 85.2042 91.8639 83.0331 90.6316C81.827 89.947 78.691 86.8663 78.3292 85.4971C77.2436 83.7856 76.6398 80.431 76.6398 76.8711V38.8451H63.8555V24.4686H76.6398V0.507568H91.403V24.4686Z" fill="#10239E"/>
<path fill-rule="evenodd" clip-rule="evenodd" d="M0.170898 38.8452H10.3025V91.9323H26.5131V38.8452H38.5263L38.5262 24.4686H26.5131L26.5131 23.2363C26.5131 20.361 27.0921 17.6305 28.25 16.3982C29.4079 15.1659 31.4342 14.4813 34.3289 14.4813C36.9342 14.4813 39.3947 14.6182 41.8553 14.8921V0.507586L36.3553 0.507568L30.9276 0.507586C24.0525 0.507586 18.6248 3.82436 15.3683 7.01128C11.1709 11.1189 10.3025 15.8426 10.3025 22.004L10.3024 24.4686H0.170827L0.170898 38.8452ZM59.5131 45.0065H43.7368V91.9323H59.5131V45.0065Z" fill="#10239E"/>
<path d="M59.5131 31.7939C59.5131 35.9647 56.0852 39.3457 51.9144 39.3457C47.7436 39.3457 44.3157 35.9646 44.3157 31.7939C44.3157 27.6231 47.7436 24.242 51.9144 24.242C56.0852 24.242 59.5131 27.6231 59.5131 31.7939Z" fill="#40A9FF"/>
</svg>
